<svg xmlns="http://www.w3.org/2000/svg" xmlns:xlink="http://www.w3.org/1999/xlink" width="500" zoomAndPan="magnify" viewBox="0 0 375 374.999991" height="500" preserveAspectRatio="xMidYMid meet" version="1.0"><defs><g/><clipPath id="3343e64e48"><path d="M 130.074219 141 L 207.324219 141 L 207.324219 201.75 L 130.074219 201.75 Z M 130.074219 141 " clip-rule="nonzero"/></clipPath></defs><g fill="#ffdd27" fill-opacity="1"><g transform="translate(35.148564, 198.168753)"><g><path d="M 0.515625 -1.96875 C 0.515625 0 2.28125 0.625 4.265625 0.625 C 6.65625 0.625 7.484375 0 9.5625 0 C 11.640625 0 12.46875 0.625 14.859375 0.625 C 16.84375 0.625 18.609375 0 18.609375 -1.96875 C 18.609375 -4.46875 15.28125 -4.265625 15.28125 -10.390625 C 15.28125 -13.609375 16.9375 -15.484375 19.328125 -15.484375 L 28.890625 -15.484375 C 31.28125 -15.484375 32.953125 -13.609375 32.953125 -10.390625 C 32.953125 -4.265625 30.34375 -4.984375 30.34375 -1.96875 C 30.34375 0.109375 32.328125 0.625 34.8125 0.625 C 37.515625 0.625 40.84375 0 42.921875 0 C 47.1875 0 50.921875 0.625 53.625 0.625 C 56.015625 0.625 57.484375 0.109375 57.484375 -1.96875 C 57.484375 -4.046875 55.921875 -4.265625 53.625 -7.171875 C 50.203125 -11.53125 41.671875 -42.828125 38.671875 -50.203125 C 37.734375 -52.484375 36.796875 -52.59375 35.234375 -52.59375 C 33.15625 -52.59375 31.390625 -51.96875 27.328125 -51.96875 C 23.703125 -51.96875 23.171875 -52.59375 20.578125 -52.59375 C 18.390625 -52.59375 16.3125 -52.28125 16.3125 -50.40625 C 16.3125 -47.609375 20.46875 -48.953125 18.390625 -42.71875 C 14.453125 -30.875 8.9375 -12.375 6.4375 -8.828125 C 3.125 -4.15625 0.515625 -4.46875 0.515625 -1.96875 Z M 18.1875 -22.96875 C 20.0625 -28.265625 21.828125 -34.71875 23.171875 -38.5625 C 23.484375 -39.390625 23.796875 -39.8125 24.109375 -39.8125 C 24.421875 -39.8125 24.734375 -39.390625 25.046875 -38.453125 C 26.1875 -34.609375 27.859375 -28.265625 29.71875 -22.96875 C 30.25 -21.515625 29.625 -20.578125 28.171875 -20.578125 L 19.75 -20.578125 C 18.296875 -20.578125 17.671875 -21.515625 18.1875 -22.96875 Z M 18.1875 -22.96875 "/></g></g></g><g fill="#ffdd27" fill-opacity="1"><g transform="translate(91.065668, 198.168753)"><g><path d="M 12.890625 17.5625 C 14.96875 17.5625 18.078125 18.1875 20.6875 18.1875 C 22.96875 18.1875 24.84375 17.671875 24.84375 15.59375 C 24.84375 12.578125 21.3125 13.921875 21.3125 4.15625 L 21.3125 -2.28125 C 21.3125 -3.84375 21.625 -3.953125 22.765625 -2.703125 C 24.53125 -0.734375 27.640625 0.625 31.8125 0.625 C 54.78125 0.625 54.25 -42.203125 32.953125 -42.203125 C 23.078125 -42.203125 21.3125 -30.765625 21.3125 -36.484375 L 21.3125 -36.59375 C 21.3125 -39.59375 20.6875 -42.203125 18.1875 -42.203125 C 15.484375 -42.203125 16.421875 -40.125 9.765625 -37.734375 C 4.359375 -35.75 1.140625 -36.375 1.140625 -33.265625 C 1.140625 -30.5625 4.671875 -31.1875 4.671875 -25.671875 C 4.671875 -23.171875 4.578125 -5.296875 4.578125 4.15625 C 4.578125 13.921875 1.046875 12.578125 1.046875 15.59375 C 1.046875 17.671875 2.8125 18.1875 5.203125 18.1875 C 7.6875 18.1875 10.8125 17.5625 12.890625 17.5625 Z M 26.40625 -30.453125 C 30.140625 -30.453125 32.015625 -25.046875 32.015625 -18.8125 C 32.015625 -12.578125 30.140625 -7.375 26.40625 -7.375 C 22.65625 -7.375 20.78125 -12.46875 20.78125 -18.703125 C 20.78125 -24.9375 22.65625 -30.453125 26.40625 -30.453125 Z M 26.40625 -30.453125 "/></g></g></g><path stroke-linecap="butt" transform="matrix(0.387169, 0, 0, 0.387169, 32.710612, 102.53809)" fill="none" stroke-linejoin="miter" d="M 7.608153 241.892802 C 7.608153 246.997973 12.198771 248.642524 17.303943 248.642524 C 23.468488 248.642524 25.627592 246.997973 31.005174 246.997973 C 36.382756 246.997973 38.54186 248.642524 44.706405 248.642524 C 49.811576 248.642524 54.341659 246.997973 54.341659 241.892802 C 54.341659 235.465936 45.755689 235.990578 45.755689 220.130243 C 45.755689 211.806593 50.073898 207.024279 56.238443 207.024279 L 80.947069 207.024279 C 87.111614 207.024279 91.369287 211.806593 91.369287 220.130243 C 91.369287 235.990578 84.6801 234.083705 84.6801 241.892802 C 84.6801 247.260294 89.79536 248.642524 96.212137 248.642524 C 103.23427 248.642524 111.820241 246.997973 117.187733 246.997973 C 128.205218 246.997973 137.830383 248.642524 144.852516 248.642524 C 151.006972 248.642524 154.740003 247.260294 154.740003 241.892802 C 154.740003 236.51522 150.744651 235.990578 144.852516 228.453892 C 135.9336 217.184175 113.90872 136.369109 106.180338 117.360921 C 103.758912 111.468786 101.327398 111.13584 97.332046 111.13584 C 91.954465 111.13584 87.373935 112.770302 76.881093 112.770302 C 67.508159 112.770302 66.136018 111.13584 59.446831 111.13584 C 53.817017 111.13584 48.439436 111.993428 48.439436 116.775743 C 48.439436 124.050108 59.18451 120.569309 53.817017 136.691965 C 43.586496 167.24228 29.370712 215.085607 22.943846 224.196219 C 14.357876 236.252899 7.608153 235.465936 7.608153 241.892802 Z M 53.292375 187.683145 C 58.135226 173.992003 62.665309 157.344704 66.136018 147.376504 C 66.983517 145.277935 67.77048 144.168116 68.557443 144.168116 C 69.415031 144.168116 70.201995 145.277935 70.988958 147.638825 C 73.935025 157.607026 78.263323 173.992003 83.045638 187.683145 C 84.417779 191.426264 82.783317 193.84769 79.050286 193.84769 L 57.287727 193.84769 C 53.554696 193.84769 51.910145 191.426264 53.292375 187.683145 Z M 184.019069 292.34925 C 189.386562 292.34925 197.44789 293.993801 204.137077 293.993801 C 210.039301 293.993801 214.882151 292.611571 214.882151 287.244078 C 214.882151 279.505607 205.771539 282.976316 205.771539 257.753137 L 205.771539 241.105838 C 205.771539 237.039862 206.558502 236.777541 209.514659 240.056554 C 214.095188 245.10119 222.156516 248.642524 232.841055 248.642524 C 292.226509 248.642524 290.844278 138.003571 235.797212 138.003571 C 210.301622 138.003571 205.771539 167.565137 205.771539 152.754086 L 205.771539 152.491765 C 205.771539 144.692758 204.137077 138.003571 197.710211 138.003571 C 190.698167 138.003571 193.129682 143.381152 175.957741 149.545697 C 161.994189 154.650869 153.67054 153.016407 153.67054 161.077735 C 153.67054 168.089779 162.781152 166.455317 162.781152 180.671101 C 162.781152 187.158502 162.518831 233.306831 162.518831 257.753137 C 162.518831 282.976316 153.408219 279.505607 153.408219 287.244078 C 153.408219 292.611571 157.998837 293.993801 164.153293 293.993801 C 170.580159 293.993801 178.641487 292.34925 184.019069 292.34925 Z M 218.887592 168.3521 C 228.583382 168.3521 233.436322 182.315652 233.436322 198.438308 C 233.436322 214.49034 228.583382 227.92925 218.887592 227.92925 C 209.252338 227.92925 204.399398 214.752661 204.399398 198.700629 C 204.399398 182.577973 209.252338 168.3521 218.887592 168.3521 Z M 218.887592 168.3521 " stroke="#f55d00" stroke-width="5.704754" stroke-opacity="1" stroke-miterlimit="4"/><g fill="#ffdd27" fill-opacity="1"><g transform="translate(140.022882, 198.168753)"><g/></g></g><g fill="#ffdd27" fill-opacity="1"><g transform="translate(153.534402, 198.168753)"><g/></g></g><g fill="#ffdd27" fill-opacity="1"><g transform="translate(167.045921, 198.168753)"><g/></g></g><g fill="#ffdd27" fill-opacity="1"><g transform="translate(180.557441, 198.168753)"><g/></g></g><g fill="#ffdd27" fill-opacity="1"><g transform="translate(194.068961, 198.168753)"><g/></g></g><g fill="#ffdd27" fill-opacity="1"><g transform="translate(207.583816, 198.168753)"><g><path d="M 25.046875 0.625 C 35.65625 0.625 45 -3.953125 45 -11.015625 C 45 -12.78125 43.859375 -14.546875 41.46875 -14.546875 C 36.28125 -14.546875 36.484375 -5.609375 26.40625 -5.609375 C 19.4375 -5.609375 19.328125 -12.46875 23.28125 -12.46875 C 33.671875 -12.46875 44.90625 -16.734375 44.90625 -27.234375 C 44.90625 -32.328125 41.359375 -42.203125 24.21875 -42.203125 C 11.015625 -42.203125 2.078125 -33.578125 2.078125 -20.6875 C 2.078125 -5.515625 14.03125 0.625 25.046875 0.625 Z M 24.21875 -36.890625 C 27.125 -36.890625 29 -33.15625 29 -27.328125 C 29 -21.515625 27.125 -17.765625 24.21875 -17.765625 C 21.3125 -17.765625 19.4375 -21.515625 19.4375 -27.328125 C 19.4375 -33.15625 21.3125 -36.890625 24.21875 -36.890625 Z M 24.21875 -36.890625 "/></g></g></g><g fill="#ffdd27" fill-opacity="1"><g transform="translate(252.5877, 198.168753)"><g><path d="M 1.046875 -1.96875 C 1.046875 0.109375 2.8125 0.625 5.203125 0.625 C 7.6875 0.625 10.8125 0 12.890625 0 C 14.96875 0 18.078125 0.625 20.6875 0.625 C 22.96875 0.625 24.84375 0.109375 24.84375 -1.96875 C 24.84375 -4.984375 21.3125 -3.640625 21.3125 -13.40625 L 21.3125 -18.390625 C 21.3125 -28.484375 23.390625 -30.875 26.609375 -30.875 C 30.25 -30.875 31.390625 -27.328125 31.390625 -20.6875 L 31.390625 -3.640625 C 31.390625 -0.828125 33.265625 0.828125 36.0625 0.515625 C 37.828125 0.3125 39.28125 0 41.46875 0 C 43.859375 0 46.5625 0.625 48.53125 0.625 C 50.40625 0.625 51.765625 0.109375 51.765625 -1.96875 C 51.765625 -4.984375 48.234375 -3.640625 48.234375 -13.40625 L 48.234375 -28.578125 C 48.234375 -35.03125 46.25 -42.203125 36.59375 -42.203125 C 27.859375 -42.203125 23.28125 -34.296875 21.828125 -34.296875 C 21.515625 -34.296875 21.3125 -34.71875 21.3125 -35.75 L 21.3125 -36.59375 C 21.3125 -39.59375 20.6875 -42.203125 18.1875 -42.203125 C 15.484375 -42.203125 16.421875 -40.125 9.765625 -37.734375 C 4.359375 -35.75 1.140625 -36.375 1.140625 -33.265625 C 1.140625 -30.5625 4.671875 -31.1875 4.671875 -25.671875 C 4.671875 -23.171875 4.578125 -22.859375 4.578125 -13.40625 C 4.578125 -3.640625 1.046875 -4.984375 1.046875 -1.96875 Z M 1.046875 -1.96875 "/></g></g></g><g fill="#ffdd27" fill-opacity="1"><g transform="translate(303.308037, 198.168753)"><g><path d="M 13.515625 0.625 C 20.15625 0.625 24.421875 -4.984375 26.71875 -4.984375 C 27.546875 -4.984375 28.0625 -4.359375 28.265625 -2.1875 C 28.484375 0 30.453125 0.828125 32.734375 0.515625 C 34.5 0.3125 36.0625 0 38.25 0 C 40.328125 0 43.03125 0.625 45.109375 0.625 C 46.984375 0.625 48.4375 0.109375 48.4375 -1.96875 C 48.4375 -4.984375 44.90625 -3.640625 44.90625 -13.40625 L 44.90625 -22.65625 C 44.90625 -37.421875 35.65625 -42.203125 24.21875 -42.203125 C 13.609375 -42.203125 4.265625 -38.359375 4.265625 -31.28125 C 4.265625 -28.890625 6.234375 -27.03125 8.625 -27.03125 C 15.6875 -27.03125 16 -36.890625 23.59375 -36.890625 C 27.328125 -36.890625 28.6875 -34.71875 28.6875 -32.953125 C 28.6875 -30.65625 26.09375 -28.890625 20.78125 -27.75 C 9.671875 -25.359375 2.078125 -20.265625 2.078125 -11.015625 C 2.078125 -4.578125 5.71875 0.625 13.515625 0.625 Z M 18.1875 -15.28125 C 18.1875 -20.375 22.546875 -21.828125 25.984375 -23.59375 C 27.640625 -24.421875 28.578125 -23.90625 28.578125 -22.140625 L 28.578125 -17.15625 C 28.578125 -13.09375 26.71875 -9.671875 23.28125 -9.671875 C 20.46875 -9.671875 18.1875 -11.21875 18.1875 -15.28125 Z M 18.1875 -15.28125 "/></g></g></g><path stroke-linecap="butt" transform="matrix(0.387169, 0, 0, 0.387169, 32.710612, 102.53809)" fill="none" stroke-linejoin="miter" d="M 516.35968 248.642524 C 543.752053 248.642524 567.936037 236.777541 567.936037 218.556316 C 567.936037 213.965697 564.98997 209.445704 558.764889 209.445704 C 545.396604 209.445704 545.921247 232.519868 519.83039 232.519868 C 501.871486 232.519868 501.609165 214.752661 511.839687 214.752661 C 538.646882 214.752661 567.613181 203.805801 567.613181 176.675749 C 567.613181 163.49916 558.502568 138.003571 514.200576 138.003571 C 480.119016 138.003571 457.044852 160.290772 457.044852 193.585369 C 457.044852 232.782189 487.918023 248.642524 516.35968 248.642524 Z M 514.200576 151.704802 C 521.737262 151.704802 526.580113 161.340056 526.580113 176.413428 C 526.580113 191.426264 521.737262 201.122055 514.200576 201.122055 C 506.724426 201.122055 501.871486 191.426264 501.871486 176.413428 C 501.871486 161.340056 506.724426 151.704802 514.200576 151.704802 Z M 570.599605 241.892802 C 570.599605 247.260294 575.190224 248.642524 581.34468 248.642524 C 587.771546 248.642524 595.832874 246.997973 601.200366 246.997973 C 606.577948 246.997973 614.639276 248.642524 621.328464 248.642524 C 627.220598 248.642524 632.073538 247.260294 632.073538 241.892802 C 632.073538 234.083705 622.962926 237.62504 622.962926 212.391771 L 622.962926 199.487593 C 622.962926 173.467361 628.340507 167.24228 636.664157 167.24228 C 646.03709 167.24228 648.983157 176.413428 648.983157 193.585369 L 648.983157 237.62504 C 648.983157 244.838869 653.836097 249.167167 661.039837 248.309578 C 665.630456 247.784936 669.363486 246.997973 675.003389 246.997973 C 681.22847 246.997973 688.179978 248.642524 693.28515 248.642524 C 698.138089 248.642524 701.608799 247.260294 701.608799 241.892802 C 701.608799 234.083705 692.498186 237.62504 692.498186 212.391771 L 692.498186 173.20504 C 692.498186 156.557741 687.393015 138.003571 662.422067 138.003571 C 639.872545 138.003571 628.078186 158.393989 624.274531 158.393989 C 623.487568 158.393989 622.962926 157.344704 622.962926 154.650869 L 622.962926 152.491765 C 622.962926 144.692758 621.328464 138.003571 614.901597 138.003571 C 607.889554 138.003571 610.310979 143.381152 593.139038 149.545697 C 579.185575 154.650869 570.861926 153.016407 570.861926 161.077735 C 570.861926 168.089779 579.972539 166.455317 579.972539 180.671101 C 579.972539 187.158502 579.710218 187.945466 579.710218 212.391771 C 579.710218 237.62504 570.599605 234.083705 570.599605 241.892802 Z M 733.783486 248.642524 C 751.015963 248.642524 762.023358 234.083705 767.925582 234.083705 C 770.02415 234.083705 771.396291 235.728257 771.920934 241.36816 C 772.445576 246.997973 777.560836 249.167167 783.46306 248.309578 C 788.04359 247.784936 792.049031 246.997973 797.678844 246.997973 C 803.056426 246.997973 810.06847 248.642524 815.446052 248.642524 C 820.228367 248.642524 824.032022 247.260294 824.032022 241.892802 C 824.032022 234.083705 814.850785 237.62504 814.850785 212.391771 L 814.850785 188.470108 C 814.850785 150.332661 790.999746 138.003571 761.43818 138.003571 C 734.106343 138.003571 709.922359 147.971771 709.922359 166.192996 C 709.922359 172.347452 715.037619 177.200391 721.192075 177.200391 C 739.4133 177.200391 740.270888 151.704802 759.864254 151.704802 C 769.499508 151.704802 772.970218 157.344704 772.970218 161.925234 C 772.970218 167.827458 766.29112 172.347452 752.589889 175.303608 C 723.885911 181.528689 704.292545 194.634653 704.292545 218.556316 C 704.292545 235.203614 713.655389 248.642524 733.783486 248.642524 Z M 745.900702 207.548921 C 745.900702 194.372332 757.180508 190.639301 766.028799 186.048683 C 770.347007 183.889578 772.707897 185.261719 772.707897 189.852338 L 772.707897 202.695981 C 772.707897 213.178734 767.925582 222.027026 759.077291 222.027026 C 751.802926 222.027026 745.900702 218.031674 745.900702 207.548921 Z M 745.900702 207.548921 " stroke="#f55d00" stroke-width="5.704754" stroke-opacity="1" stroke-miterlimit="4"/><g clip-path="url(#3343e64e48)"><path fill="#100f0d" d="M 130.074219 141 C 130.125 141.011719 185.210938 153.835938 207.328125 196.144531 C 203.136719 196.136719 199.5625 196.664062 195.65625 198.144531 C 194.820312 198.464844 193.9375 198.699219 193.074219 198.9375 C 190.136719 199.761719 187.128906 200.367188 184.101562 200.734375 C 175.824219 201.742188 166.90625 200.992188 159.742188 196.375 C 153.050781 192.066406 149.101562 184.929688 147.183594 177.355469 C 145.835938 172.039062 145.769531 165.667969 145.898438 160.203125 C 145.964844 157.367188 143.957031 156.3125 142.222656 154.398438 C 140.472656 152.472656 138.726562 150.542969 136.976562 148.613281 C 135.375 146.847656 133.777344 145.082031 132.175781 143.320312 C 131.777344 142.878906 130.679688 141.140625 130.074219 141 " fill-opacity="1" fill-rule="nonzero"/></g><path fill="#a5611d" d="M 152.878906 159.234375 C 151.71875 162.5 150.988281 165.996094 150.613281 169.433594 C 150.316406 172.1875 150.269531 175.023438 150.835938 177.75 C 153.011719 188.132812 164.683594 198.609375 175.492188 198.457031 C 181.1875 198.378906 186.824219 196.636719 191.574219 193.496094 C 192.195312 193.085938 198.199219 188.21875 197.910156 187.972656 L 187.171875 178.847656 C 187.171875 178.847656 180.3125 187.324219 170.863281 182.277344 C 161.417969 177.226562 166.851562 165.1875 166.851562 165.1875 L 152.878906 159.234375 " fill-opacity="1" fill-rule="nonzero"/><path fill="#ffffff" d="M 167.0625 171.066406 C 167.0625 172.753906 165.695312 174.121094 164.007812 174.121094 C 162.320312 174.121094 160.953125 172.753906 160.953125 171.066406 C 160.953125 169.378906 162.320312 168.007812 164.007812 168.007812 C 165.695312 168.007812 167.0625 169.378906 167.0625 171.066406 " fill-opacity="1" fill-rule="nonzero"/><path fill="#ffffff" d="M 169.882812 172.941406 L 169.878906 176.207031 L 168.195312 176.207031 L 168.199219 172.941406 L 169.882812 172.941406 " fill-opacity="1" fill-rule="nonzero"/><path fill="#ffffff" d="M 170.65625 175.417969 L 167.394531 175.414062 L 167.394531 173.730469 L 170.65625 173.734375 L 170.65625 175.417969 " fill-opacity="1" fill-rule="nonzero"/><path fill="#100f0d" d="M 203.113281 166.332031 C 203.070312 165.609375 202.976562 164.859375 202.835938 164.085938 C 202.691406 163.316406 202.5 162.527344 202.242188 161.730469 C 201.738281 160.140625 200.988281 158.519531 199.976562 157.003906 C 199.472656 156.246094 198.902344 155.511719 198.285156 154.816406 C 197.660156 154.121094 196.988281 153.460938 196.273438 152.839844 C 196.097656 152.6875 195.917969 152.53125 195.734375 152.382812 L 195.460938 152.15625 C 195.367188 152.082031 195.273438 152.011719 195.179688 151.9375 C 195.085938 151.867188 194.992188 151.792969 194.898438 151.71875 L 194.613281 151.507812 C 194.425781 151.363281 194.230469 151.226562 194.039062 151.089844 C 193.261719 150.546875 192.460938 150.03125 191.640625 149.5625 C 189.996094 148.617188 188.269531 147.839844 186.515625 147.265625 C 184.757812 146.679688 182.980469 146.289062 181.25 146.058594 C 180.382812 145.949219 179.527344 145.875 178.691406 145.839844 C 178.273438 145.820312 177.863281 145.8125 177.449219 145.808594 C 177.246094 145.8125 177.039062 145.8125 176.835938 145.816406 C 176.640625 145.820312 176.445312 145.828125 176.25 145.835938 L 176.167969 145.835938 L 175.945312 145.847656 C 175.847656 145.855469 175.75 145.859375 175.652344 145.867188 C 175.457031 145.878906 175.261719 145.886719 175.070312 145.90625 C 174.878906 145.921875 174.6875 145.9375 174.5 145.957031 C 174.3125 145.972656 174.125 145.996094 173.9375 146.015625 C 173.199219 146.097656 172.488281 146.21875 171.808594 146.339844 C 170.453125 146.601562 169.238281 146.941406 168.179688 147.296875 C 167.121094 147.648438 166.222656 148.015625 165.5 148.347656 C 165.316406 148.429688 165.148438 148.511719 164.988281 148.589844 C 164.828125 148.664062 164.675781 148.734375 164.539062 148.808594 C 164.402344 148.878906 164.273438 148.945312 164.15625 149.003906 C 164.097656 149.035156 164.042969 149.066406 163.992188 149.09375 C 163.9375 149.121094 163.890625 149.148438 163.84375 149.171875 C 163.476562 149.378906 163.277344 149.488281 163.277344 149.488281 L 163.425781 149.792969 C 163.425781 149.792969 163.632812 149.703125 164.023438 149.539062 C 164.070312 149.519531 164.125 149.5 164.179688 149.476562 C 164.230469 149.457031 164.289062 149.433594 164.347656 149.410156 C 164.46875 149.363281 164.597656 149.3125 164.738281 149.257812 C 164.878906 149.203125 165.035156 149.148438 165.199219 149.089844 C 165.363281 149.03125 165.535156 148.96875 165.71875 148.90625 C 165.90625 148.84375 166.101562 148.78125 166.304688 148.714844 C 166.507812 148.648438 166.726562 148.589844 166.953125 148.523438 C 167.175781 148.453125 167.414062 148.394531 167.65625 148.328125 C 167.777344 148.296875 167.902344 148.261719 168.03125 148.234375 C 168.15625 148.203125 168.285156 148.171875 168.417969 148.140625 C 168.550781 148.113281 168.683594 148.078125 168.820312 148.050781 C 168.957031 148.023438 169.09375 147.992188 169.234375 147.964844 C 169.515625 147.90625 169.804688 147.859375 170.105469 147.804688 C 170.179688 147.792969 170.253906 147.78125 170.328125 147.765625 C 170.402344 147.753906 170.480469 147.746094 170.558594 147.734375 C 170.710938 147.710938 170.867188 147.691406 171.023438 147.667969 C 171.179688 147.644531 171.339844 147.628906 171.5 147.609375 C 171.660156 147.589844 171.824219 147.570312 171.988281 147.550781 C 172.644531 147.492188 173.332031 147.433594 174.042969 147.417969 C 174.21875 147.414062 174.398438 147.40625 174.582031 147.40625 C 174.761719 147.40625 174.941406 147.40625 175.125 147.40625 C 175.308594 147.402344 175.492188 147.410156 175.679688 147.414062 C 175.773438 147.417969 175.867188 147.421875 175.960938 147.425781 L 176.101562 147.429688 L 176.167969 147.429688 L 176.234375 147.433594 C 176.425781 147.445312 176.621094 147.457031 176.816406 147.464844 C 177.003906 147.480469 177.191406 147.496094 177.382812 147.507812 C 177.765625 147.542969 178.15625 147.582031 178.546875 147.628906 C 179.328125 147.726562 180.121094 147.859375 180.917969 148.027344 C 182.511719 148.363281 184.125 148.851562 185.699219 149.488281 C 187.269531 150.128906 188.796875 150.921875 190.222656 151.863281 C 190.9375 152.335938 191.621094 152.84375 192.265625 153.394531 C 192.421875 153.535156 192.585938 153.667969 192.738281 153.8125 L 192.972656 154.023438 C 193.050781 154.09375 193.125 154.167969 193.203125 154.242188 C 193.277344 154.3125 193.355469 154.382812 193.429688 154.457031 L 193.648438 154.679688 C 193.796875 154.828125 193.9375 154.980469 194.082031 155.128906 C 194.652344 155.730469 195.175781 156.363281 195.667969 157 C 196.160156 157.636719 196.617188 158.285156 197.039062 158.9375 C 197.332031 159.386719 197.609375 159.839844 197.867188 160.292969 C 197.414062 159.71875 196.925781 159.15625 196.40625 158.613281 C 196.304688 158.503906 196.195312 158.398438 196.085938 158.289062 C 195.980469 158.179688 195.875 158.070312 195.765625 157.964844 C 195.652344 157.855469 195.542969 157.75 195.433594 157.644531 C 195.320312 157.539062 195.210938 157.433594 195.097656 157.332031 C 194.867188 157.125 194.644531 156.914062 194.410156 156.714844 L 194.0625 156.414062 L 193.707031 156.121094 C 193.585938 156.023438 193.46875 155.921875 193.347656 155.828125 L 192.984375 155.546875 C 192.746094 155.355469 192.492188 155.175781 192.246094 154.992188 C 192.121094 154.898438 191.996094 154.816406 191.875 154.730469 C 191.75 154.644531 191.628906 154.558594 191.507812 154.472656 L 191.4375 154.425781 L 191.417969 154.414062 L 191.3125 154.34375 L 191.121094 154.222656 C 190.992188 154.140625 190.867188 154.058594 190.738281 153.976562 L 190.550781 153.851562 C 190.484375 153.8125 190.421875 153.773438 190.359375 153.734375 C 190.230469 153.660156 190.097656 153.582031 189.96875 153.507812 C 189.710938 153.355469 189.460938 153.199219 189.195312 153.066406 C 188.9375 152.925781 188.675781 152.789062 188.417969 152.652344 C 188.15625 152.523438 187.898438 152.398438 187.636719 152.273438 C 187.574219 152.242188 187.507812 152.210938 187.445312 152.183594 C 187.378906 152.152344 187.3125 152.125 187.25 152.09375 C 187.117188 152.039062 186.988281 151.984375 186.859375 151.925781 C 186.730469 151.871094 186.601562 151.816406 186.476562 151.757812 C 186.347656 151.703125 186.214844 151.65625 186.089844 151.605469 C 185.832031 151.507812 185.578125 151.40625 185.324219 151.3125 C 185.070312 151.226562 184.816406 151.144531 184.570312 151.058594 C 184.507812 151.039062 184.445312 151.015625 184.382812 150.996094 C 184.320312 150.976562 184.257812 150.960938 184.195312 150.941406 C 184.074219 150.90625 183.949219 150.867188 183.828125 150.832031 C 183.582031 150.761719 183.34375 150.6875 183.101562 150.632812 C 182.863281 150.574219 182.628906 150.515625 182.398438 150.460938 C 182.164062 150.410156 181.9375 150.363281 181.710938 150.320312 C 181.601562 150.296875 181.488281 150.273438 181.378906 150.25 C 181.269531 150.234375 181.160156 150.21875 181.050781 150.199219 C 180.835938 150.167969 180.625 150.132812 180.421875 150.101562 C 180.214844 150.078125 180.011719 150.058594 179.816406 150.035156 C 179.71875 150.027344 179.621094 150.015625 179.527344 150.003906 C 179.480469 150 179.433594 149.996094 179.386719 149.992188 C 179.339844 149.988281 179.292969 149.984375 179.246094 149.980469 C 179.0625 149.96875 178.882812 149.960938 178.710938 149.949219 C 178.621094 149.945312 178.539062 149.9375 178.453125 149.933594 C 178.371094 149.929688 178.289062 149.929688 178.210938 149.929688 C 178.050781 149.929688 177.898438 149.925781 177.75 149.925781 C 177.675781 149.925781 177.605469 149.925781 177.535156 149.921875 C 177.464844 149.921875 177.398438 149.929688 177.332031 149.929688 C 177.066406 149.941406 176.828125 149.949219 176.621094 149.957031 C 176.417969 149.972656 176.242188 149.992188 176.101562 150.003906 C 175.820312 150.03125 175.671875 150.042969 175.671875 150.042969 L 175.679688 150.195312 C 175.679688 150.195312 175.832031 150.191406 176.113281 150.1875 C 176.253906 150.183594 176.429688 150.175781 176.632812 150.175781 C 176.835938 150.183594 177.066406 150.191406 177.328125 150.199219 C 177.851562 150.222656 178.484375 150.273438 179.203125 150.375 C 179.25 150.378906 179.292969 150.386719 179.339844 150.390625 C 179.386719 150.398438 179.429688 150.40625 179.476562 150.414062 C 179.570312 150.429688 179.664062 150.445312 179.757812 150.460938 C 179.949219 150.496094 180.144531 150.527344 180.34375 150.566406 C 180.542969 150.609375 180.746094 150.652344 180.957031 150.699219 C 181.058594 150.722656 181.164062 150.746094 181.269531 150.769531 C 181.378906 150.796875 181.484375 150.824219 181.59375 150.855469 C 181.808594 150.910156 182.027344 150.96875 182.25 151.027344 C 182.472656 151.097656 182.699219 151.167969 182.929688 151.238281 C 183.160156 151.304688 183.386719 151.390625 183.621094 151.472656 C 183.738281 151.515625 183.855469 151.558594 183.972656 151.597656 C 184.035156 151.621094 184.09375 151.640625 184.152344 151.664062 C 184.210938 151.6875 184.269531 151.710938 184.328125 151.734375 C 184.566406 151.828125 184.804688 151.925781 185.046875 152.023438 C 185.289062 152.125 185.527344 152.238281 185.773438 152.347656 C 185.894531 152.402344 186.019531 152.453125 186.140625 152.515625 C 186.261719 152.574219 186.382812 152.632812 186.503906 152.695312 C 186.628906 152.757812 186.75 152.816406 186.875 152.878906 C 186.933594 152.910156 186.996094 152.9375 187.058594 152.972656 C 187.117188 153.003906 187.179688 153.039062 187.242188 153.070312 C 187.484375 153.203125 187.730469 153.339844 187.976562 153.472656 C 188.21875 153.617188 188.460938 153.765625 188.707031 153.914062 C 188.953125 154.054688 189.191406 154.21875 189.433594 154.375 C 189.554688 154.453125 189.675781 154.53125 189.796875 154.609375 C 189.859375 154.648438 189.917969 154.691406 189.976562 154.734375 L 190.152344 154.859375 C 190.273438 154.941406 190.390625 155.027344 190.511719 155.109375 L 190.691406 155.238281 L 190.777344 155.300781 L 190.789062 155.308594 C 190.796875 155.3125 190.785156 155.304688 190.796875 155.3125 L 190.816406 155.328125 L 190.863281 155.363281 C 190.980469 155.453125 191.101562 155.542969 191.21875 155.632812 C 191.339844 155.722656 191.460938 155.8125 191.570312 155.90625 C 191.796875 156.089844 192.027344 156.265625 192.25 156.460938 L 192.585938 156.746094 C 192.699219 156.839844 192.804688 156.941406 192.917969 157.039062 C 193.792969 157.828125 194.613281 158.675781 195.351562 159.5625 C 196.089844 160.449219 196.753906 161.363281 197.359375 162.269531 C 197.96875 163.175781 198.503906 164.082031 198.964844 164.96875 C 199.019531 165.078125 199.078125 165.1875 199.132812 165.300781 C 199.1875 165.410156 199.238281 165.519531 199.289062 165.628906 C 199.398438 165.847656 199.492188 166.066406 199.585938 166.28125 C 199.613281 166.332031 199.636719 166.386719 199.660156 166.441406 C 199.679688 166.496094 199.703125 166.546875 199.722656 166.601562 C 199.769531 166.707031 199.8125 166.8125 199.855469 166.917969 C 199.898438 167.023438 199.933594 167.128906 199.972656 167.234375 C 200.011719 167.335938 200.050781 167.441406 200.089844 167.542969 C 200.382812 168.363281 200.597656 169.136719 200.746094 169.835938 C 200.890625 170.53125 200.96875 171.152344 201.019531 171.667969 C 201.027344 171.746094 201.03125 171.820312 201.039062 171.894531 C 201.042969 172.253906 201.039062 172.59375 201.027344 172.90625 C 201.027344 173.097656 201.015625 173.28125 201.007812 173.453125 C 201 173.628906 200.992188 173.789062 200.980469 173.941406 C 200.972656 174.09375 200.964844 174.234375 200.953125 174.363281 C 200.941406 174.492188 200.9375 174.609375 200.925781 174.714844 C 200.886719 175.140625 200.867188 175.367188 200.867188 175.367188 L 201.191406 175.46875 C 201.191406 175.46875 201.21875 175.417969 201.273438 175.320312 C 201.328125 175.21875 201.40625 175.074219 201.5 174.878906 C 201.691406 174.488281 201.960938 173.902344 202.226562 173.128906 C 202.492188 172.351562 202.757812 171.382812 202.9375 170.238281 C 202.960938 170.09375 202.980469 169.941406 203 169.792969 C 203.015625 169.648438 203.035156 169.503906 203.050781 169.359375 C 203.066406 169.199219 203.078125 169.039062 203.09375 168.878906 C 203.109375 168.722656 203.117188 168.558594 203.125 168.398438 C 203.152344 167.746094 203.164062 167.050781 203.113281 166.332031 " fill-opacity="1" fill-rule="nonzero"/><g fill="#f55d00" fill-opacity="1"><g transform="translate(35.287899, 235.842407)"><g><path d="M 3.296875 0 C 4.09375 0 5.65625 0.15625 6.359375 0.15625 C 10.546875 0.15625 13.046875 -2.28125 13.046875 -6.640625 C 13.046875 -11 10.546875 -13.453125 6.359375 -13.453125 C 5.65625 -13.453125 4.09375 -13.296875 3.296875 -13.296875 C 2.765625 -13.296875 1.96875 -13.453125 1.328125 -13.453125 C 0.71875 -13.453125 0.265625 -13.3125 0.265625 -12.78125 C 0.265625 -12.015625 1.171875 -12.359375 1.171875 -9.859375 L 1.171875 -3.421875 C 1.171875 -0.9375 0.265625 -1.28125 0.265625 -0.5 C 0.265625 0.03125 0.71875 0.15625 1.328125 0.15625 C 1.96875 0.15625 2.765625 0 3.296875 0 Z M 5.46875 -1.9375 L 5.46875 -11.21875 C 5.46875 -11.640625 5.734375 -11.796875 6.140625 -11.796875 C 8.109375 -11.796875 8.53125 -8.53125 8.53125 -6.640625 C 8.53125 -4.65625 8.15625 -1.359375 6.140625 -1.359375 C 5.734375 -1.359375 5.46875 -1.515625 5.46875 -1.9375 Z M 5.46875 -1.9375 "/></g></g></g><g fill="#f55d00" fill-opacity="1"><g transform="translate(49.129086, 235.842407)"><g><path d="M 6.40625 0.15625 C 9.109375 0.15625 11.515625 -1.015625 11.515625 -2.8125 C 11.515625 -3.265625 11.21875 -3.71875 10.609375 -3.71875 C 9.28125 -3.71875 9.328125 -1.4375 6.75 -1.4375 C 4.96875 -1.4375 4.9375 -3.1875 5.953125 -3.1875 C 8.609375 -3.1875 11.484375 -4.28125 11.484375 -6.96875 C 11.484375 -8.265625 10.578125 -10.796875 6.1875 -10.796875 C 2.8125 -10.796875 0.53125 -8.578125 0.53125 -5.28125 C 0.53125 -1.40625 3.59375 0.15625 6.40625 0.15625 Z M 6.1875 -9.4375 C 6.9375 -9.4375 7.421875 -8.484375 7.421875 -6.984375 C 7.421875 -5.5 6.9375 -4.546875 6.1875 -4.546875 C 5.453125 -4.546875 4.96875 -5.5 4.96875 -6.984375 C 4.96875 -8.484375 5.453125 -9.4375 6.1875 -9.4375 Z M 6.1875 -9.4375 "/></g></g></g><g fill="#f55d00" fill-opacity="1"><g transform="translate(61.429416, 235.842407)"><g><path d="M 0.53125 -2.546875 C 0.53125 -0.453125 3.796875 0.15625 5.28125 0.15625 C 7.96875 0.15625 10.65625 -0.828125 10.65625 -3.53125 C 10.65625 -7.78125 4.390625 -6.4375 4.390625 -8.421875 C 4.390625 -8.875 4.59375 -9.4375 5.5625 -9.4375 C 7.5 -9.4375 7.578125 -6.90625 9.40625 -6.90625 C 10 -6.90625 10.53125 -7.390625 10.53125 -8 C 10.53125 -9.8125 8.109375 -10.796875 5.390625 -10.796875 C 4.0625 -10.796875 0.671875 -10.4375 0.671875 -7.3125 C 0.671875 -3.1875 7.015625 -3.78125 7.015625 -2.09375 C 7.015625 -1.375 6.453125 -1.28125 5.53125 -1.28125 C 3.109375 -1.28125 3.0625 -3.71875 1.734375 -3.71875 C 0.953125 -3.71875 0.53125 -3.265625 0.53125 -2.546875 Z M 0.53125 -2.546875 "/></g></g></g><g fill="#f55d00" fill-opacity="1"><g transform="translate(72.879621, 235.842407)"><g><path d="M 6.40625 0.15625 C 9.109375 0.15625 11.515625 -1.015625 11.515625 -2.8125 C 11.515625 -3.265625 11.21875 -3.71875 10.609375 -3.71875 C 9.28125 -3.71875 9.328125 -1.4375 6.75 -1.4375 C 4.96875 -1.4375 4.9375 -3.1875 5.953125 -3.1875 C 8.609375 -3.1875 11.484375 -4.28125 11.484375 -6.96875 C 11.484375 -8.265625 10.578125 -10.796875 6.1875 -10.796875 C 2.8125 -10.796875 0.53125 -8.578125 0.53125 -5.28125 C 0.53125 -1.40625 3.59375 0.15625 6.40625 0.15625 Z M 6.1875 -9.4375 C 6.9375 -9.4375 7.421875 -8.484375 7.421875 -6.984375 C 7.421875 -5.5 6.9375 -4.546875 6.1875 -4.546875 C 5.453125 -4.546875 4.96875 -5.5 4.96875 -6.984375 C 4.96875 -8.484375 5.453125 -9.4375 6.1875 -9.4375 Z M 6.1875 -9.4375 "/></g></g></g><g fill="#f55d00" fill-opacity="1"><g transform="translate(85.179954, 235.842407)"><g><path d="M 0.265625 -0.5 C 0.265625 0.03125 0.71875 0.15625 1.328125 0.15625 C 1.96875 0.15625 2.765625 0 3.296875 0 C 3.828125 0 4.625 0.15625 5.28125 0.15625 C 5.875 0.15625 6.359375 0.03125 6.359375 -0.5 C 6.359375 -1.28125 5.453125 -0.9375 5.453125 -3.421875 L 5.453125 -4.703125 C 5.453125 -7.28125 5.984375 -7.890625 6.796875 -7.890625 C 7.734375 -7.890625 8.03125 -6.984375 8.03125 -5.28125 L 8.03125 -0.9375 C 8.03125 -0.21875 8.5 0.21875 9.21875 0.140625 C 9.671875 0.078125 10.046875 0 10.609375 0 C 11.21875 0 11.90625 0.15625 12.40625 0.15625 C 12.890625 0.15625 13.234375 0.03125 13.234375 -0.5 C 13.234375 -1.28125 12.328125 -0.9375 12.328125 -3.421875 L 12.328125 -7.3125 C 12.328125 -8.953125 11.828125 -10.796875 9.359375 -10.796875 C 7.125 -10.796875 5.953125 -8.765625 5.578125 -8.765625 C 5.5 -8.765625 5.453125 -8.875 5.453125 -9.140625 L 5.453125 -9.359375 C 5.453125 -10.125 5.28125 -10.796875 4.65625 -10.796875 C 3.953125 -10.796875 4.203125 -10.265625 2.5 -9.640625 C 1.109375 -9.140625 0.296875 -9.296875 0.296875 -8.5 C 0.296875 -7.8125 1.203125 -7.96875 1.203125 -6.5625 C 1.203125 -5.921875 1.171875 -5.84375 1.171875 -3.421875 C 1.171875 -0.9375 0.265625 -1.28125 0.265625 -0.5 Z M 0.265625 -0.5 "/></g></g></g><g fill="#f55d00" fill-opacity="1"><g transform="translate(98.941433, 235.842407)"><g><path d="M 0.140625 -10.125 C 0.140625 -9.25 1.015625 -9.546875 2.359375 -6.453125 C 2.625 -5.875 3.984375 -2.875 4.9375 -0.765625 C 5.234375 -0.15625 5.5625 0.15625 5.90625 0.15625 C 6.21875 0.15625 6.5625 -0.15625 6.828125 -0.765625 C 7.6875 -2.6875 8.6875 -4.578125 9.484375 -6.515625 C 10.8125 -9.75 11.9375 -9.296875 11.9375 -10.265625 C 11.9375 -10.6875 11.671875 -10.796875 11.328125 -10.796875 C 10.921875 -10.796875 10.421875 -10.625 10.09375 -10.625 C 9.78125 -10.625 9.28125 -10.796875 8.90625 -10.796875 C 8.5625 -10.796875 8.265625 -10.65625 8.265625 -10.203125 C 8.234375 -9.703125 8.765625 -9.59375 8.765625 -8.953125 C 8.765625 -8.21875 8.1875 -6.78125 7.6875 -5.65625 C 7.515625 -5.28125 7.328125 -5.265625 7.171875 -5.640625 C 6.71875 -6.671875 6.140625 -8.046875 6.140625 -8.953125 C 6.140625 -9.59375 6.59375 -9.625 6.59375 -10.125 C 6.59375 -10.65625 6.109375 -10.796875 5.46875 -10.796875 C 4.78125 -10.796875 3.90625 -10.625 3.25 -10.625 C 2.71875 -10.625 1.890625 -10.796875 1.21875 -10.796875 C 0.609375 -10.796875 0.140625 -10.65625 0.140625 -10.125 Z M 0.140625 -10.125 "/></g></g></g><g fill="#f55d00" fill-opacity="1"><g transform="translate(111.268327, 235.842407)"><g><path d="M 6.296875 0.15625 C 9.828125 0.15625 12.0625 -1.859375 12.0625 -5.3125 C 12.0625 -8.765625 9.828125 -10.796875 6.296875 -10.796875 C 2.734375 -10.796875 0.53125 -8.765625 0.53125 -5.3125 C 0.53125 -1.859375 2.734375 0.15625 6.296875 0.15625 Z M 4.921875 -5.3125 C 4.921875 -7.515625 5.203125 -9.296875 6.296875 -9.296875 C 7.421875 -9.296875 7.6875 -7.515625 7.6875 -5.3125 C 7.6875 -3.109375 7.421875 -1.328125 6.296875 -1.328125 C 5.203125 -1.328125 4.921875 -3.109375 4.921875 -5.3125 Z M 4.921875 -5.3125 "/></g></g></g><g fill="#f55d00" fill-opacity="1"><g transform="translate(124.126558, 235.842407)"><g><path d="M 3.296875 0 C 3.828125 0 4.625 0.15625 5.28125 0.15625 C 5.875 0.15625 6.359375 0.03125 6.359375 -0.5 C 6.359375 -1.28125 5.453125 -0.9375 5.453125 -3.421875 L 5.453125 -13.84375 C 5.453125 -14.625 5.28125 -15.28125 4.65625 -15.28125 C 3.953125 -15.28125 4.203125 -14.75 2.5 -14.140625 C 1.109375 -13.640625 0.296875 -13.796875 0.296875 -13 C 0.296875 -12.3125 1.203125 -12.46875 1.203125 -11.0625 C 1.203125 -10.421875 1.171875 -5.84375 1.171875 -3.421875 C 1.171875 -0.9375 0.265625 -1.28125 0.265625 -0.5 C 0.265625 0.03125 0.71875 0.15625 1.328125 0.15625 C 1.96875 0.15625 2.765625 0 3.296875 0 Z M 3.296875 0 "/></g></g></g><g fill="#f55d00" fill-opacity="1"><g transform="translate(131.007347, 235.842407)"><g><path d="M 0.140625 -10.125 C 0.140625 -9.25 1.015625 -9.546875 2.359375 -6.453125 C 2.625 -5.875 3.984375 -2.875 4.9375 -0.765625 C 5.234375 -0.15625 5.5625 0.15625 5.90625 0.15625 C 6.21875 0.15625 6.5625 -0.15625 6.828125 -0.765625 C 7.6875 -2.6875 8.6875 -4.578125 9.484375 -6.515625 C 10.8125 -9.75 11.9375 -9.296875 11.9375 -10.265625 C 11.9375 -10.6875 11.671875 -10.796875 11.328125 -10.796875 C 10.921875 -10.796875 10.421875 -10.625 10.09375 -10.625 C 9.78125 -10.625 9.28125 -10.796875 8.90625 -10.796875 C 8.5625 -10.796875 8.265625 -10.65625 8.265625 -10.203125 C 8.234375 -9.703125 8.765625 -9.59375 8.765625 -8.953125 C 8.765625 -8.21875 8.1875 -6.78125 7.6875 -5.65625 C 7.515625 -5.28125 7.328125 -5.265625 7.171875 -5.640625 C 6.71875 -6.671875 6.140625 -8.046875 6.140625 -8.953125 C 6.140625 -9.59375 6.59375 -9.625 6.59375 -10.125 C 6.59375 -10.65625 6.109375 -10.796875 5.46875 -10.796875 C 4.78125 -10.796875 3.90625 -10.625 3.25 -10.625 C 2.71875 -10.625 1.890625 -10.796875 1.21875 -10.796875 C 0.609375 -10.796875 0.140625 -10.65625 0.140625 -10.125 Z M 0.140625 -10.125 "/></g></g></g><g fill="#f55d00" fill-opacity="1"><g transform="translate(143.334241, 235.842407)"><g><path d="M 3.375 0 C 3.90625 0 4.703125 0.15625 5.375 0.15625 C 5.953125 0.15625 6.4375 0.03125 6.4375 -0.5 C 6.4375 -1.28125 5.53125 -0.9375 5.53125 -3.421875 L 5.53125 -9.359375 C 5.53125 -10.125 5.375 -10.796875 4.734375 -10.796875 C 4.046875 -10.796875 4.25 -10.265625 2.578125 -9.640625 C 1.203125 -9.140625 0.375 -9.296875 0.375 -8.5 C 0.375 -7.8125 1.28125 -7.96875 1.28125 -6.5625 C 1.28125 -5.921875 1.25 -5.84375 1.25 -3.421875 C 1.25 -0.9375 0.34375 -1.28125 0.34375 -0.5 C 0.34375 0.03125 0.796875 0.15625 1.40625 0.15625 C 2.046875 0.15625 2.84375 0 3.375 0 Z M 0.34375 -11.53125 C 0.578125 -10.890625 1.140625 -10.578125 1.859375 -10.578125 C 2.359375 -10.578125 2.953125 -10.734375 3.59375 -11.0625 C 5.078125 -11.859375 5.90625 -13.203125 5.5 -14.296875 C 5.265625 -14.9375 4.703125 -15.25 3.984375 -15.25 C 3.484375 -15.25 2.890625 -15.09375 2.28125 -14.78125 C 0.796875 -13.984375 -0.03125 -12.59375 0.34375 -11.53125 Z M 0.34375 -11.53125 "/></g></g></g><g fill="#f55d00" fill-opacity="1"><g transform="translate(150.268158, 235.842407)"><g><path d="M 3.421875 0 C 3.953125 0 4.75 0.15625 5.421875 0.15625 C 6 0.15625 6.484375 0.03125 6.484375 -0.5 C 6.484375 -1.28125 5.578125 -0.9375 5.578125 -3.421875 L 5.578125 -4.703125 C 5.578125 -7.28125 6.109375 -7.890625 6.9375 -7.890625 C 7.859375 -7.890625 8.15625 -6.984375 8.15625 -5.28125 L 8.15625 -0.9375 C 8.15625 -0.21875 8.640625 0.21875 9.359375 0.140625 C 9.8125 0.078125 10.171875 0 10.734375 0 C 11.34375 0 12.046875 0.15625 12.546875 0.15625 C 13.015625 0.15625 13.375 0.03125 13.375 -0.5 C 13.375 -1.28125 12.46875 -0.9375 12.46875 -3.421875 L 12.46875 -5.421875 C 12.46875 -7.390625 13.078125 -7.890625 13.828125 -7.890625 C 14.75 -7.890625 15.015625 -6.984375 15.015625 -5.28125 L 15.015625 -0.9375 C 15.015625 -0.21875 15.5 0.21875 16.21875 0.140625 C 16.671875 0.078125 17.03125 0 17.59375 0 C 18.203125 0 18.890625 0.15625 19.40625 0.15625 C 19.90625 0.15625 20.21875 0.03125 20.21875 -0.5 C 20.203125 -1.28125 19.328125 -0.9375 19.328125 -3.421875 L 19.328125 -7.3125 C 19.328125 -8.953125 18.8125 -10.796875 16.34375 -10.796875 C 13.921875 -10.796875 12.96875 -8.75 12.46875 -8.765625 C 12.140625 -8.796875 11.6875 -10.796875 9.484375 -10.796875 C 7.25 -10.796875 6.09375 -8.765625 5.71875 -8.765625 C 5.640625 -8.765625 5.578125 -8.875 5.578125 -9.140625 L 5.578125 -9.359375 C 5.578125 -10.125 5.421875 -10.796875 4.78125 -10.796875 C 4.09375 -10.796875 4.328125 -10.265625 2.625 -9.640625 C 1.25 -9.140625 0.421875 -9.296875 0.421875 -8.5 C 0.421875 -7.8125 1.328125 -7.96875 1.328125 -6.5625 C 1.328125 -5.921875 1.296875 -5.84375 1.296875 -3.421875 C 1.296875 -0.9375 0.40625 -1.28125 0.40625 -0.5 C 0.40625 0.03125 0.84375 0.15625 1.46875 0.15625 C 2.09375 0.15625 2.890625 0 3.421875 0 Z M 3.421875 0 "/></g></g></g><g fill="#f55d00" fill-opacity="1"><g transform="translate(171.149424, 235.842407)"><g><path d="M 6.40625 0.15625 C 9.109375 0.15625 11.515625 -1.015625 11.515625 -2.8125 C 11.515625 -3.265625 11.21875 -3.71875 10.609375 -3.71875 C 9.28125 -3.71875 9.328125 -1.4375 6.75 -1.4375 C 4.96875 -1.4375 4.9375 -3.1875 5.953125 -3.1875 C 8.609375 -3.1875 11.484375 -4.28125 11.484375 -6.96875 C 11.484375 -8.265625 10.578125 -10.796875 6.1875 -10.796875 C 2.8125 -10.796875 0.53125 -8.578125 0.53125 -5.28125 C 0.53125 -1.40625 3.59375 0.15625 6.40625 0.15625 Z M 6.1875 -9.4375 C 6.9375 -9.4375 7.421875 -8.484375 7.421875 -6.984375 C 7.421875 -5.5 6.9375 -4.546875 6.1875 -4.546875 C 5.453125 -4.546875 4.96875 -5.5 4.96875 -6.984375 C 4.96875 -8.484375 5.453125 -9.4375 6.1875 -9.4375 Z M 6.1875 -9.4375 "/></g></g></g><g fill="#f55d00" fill-opacity="1"><g transform="translate(183.449751, 235.842407)"><g><path d="M 0.265625 -0.5 C 0.265625 0.03125 0.71875 0.15625 1.328125 0.15625 C 1.96875 0.15625 2.765625 0 3.296875 0 C 3.828125 0 4.625 0.15625 5.28125 0.15625 C 5.875 0.15625 6.359375 0.03125 6.359375 -0.5 C 6.359375 -1.28125 5.453125 -0.9375 5.453125 -3.421875 L 5.453125 -4.703125 C 5.453125 -7.28125 5.984375 -7.890625 6.796875 -7.890625 C 7.734375 -7.890625 8.03125 -6.984375 8.03125 -5.28125 L 8.03125 -0.9375 C 8.03125 -0.21875 8.5 0.21875 9.21875 0.140625 C 9.671875 0.078125 10.046875 0 10.609375 0 C 11.21875 0 11.90625 0.15625 12.40625 0.15625 C 12.890625 0.15625 13.234375 0.03125 13.234375 -0.5 C 13.234375 -1.28125 12.328125 -0.9375 12.328125 -3.421875 L 12.328125 -7.3125 C 12.328125 -8.953125 11.828125 -10.796875 9.359375 -10.796875 C 7.125 -10.796875 5.953125 -8.765625 5.578125 -8.765625 C 5.5 -8.765625 5.453125 -8.875 5.453125 -9.140625 L 5.453125 -9.359375 C 5.453125 -10.125 5.28125 -10.796875 4.65625 -10.796875 C 3.953125 -10.796875 4.203125 -10.265625 2.5 -9.640625 C 1.109375 -9.140625 0.296875 -9.296875 0.296875 -8.5 C 0.296875 -7.8125 1.203125 -7.96875 1.203125 -6.5625 C 1.203125 -5.921875 1.171875 -5.84375 1.171875 -3.421875 C 1.171875 -0.9375 0.265625 -1.28125 0.265625 -0.5 Z M 0.265625 -0.5 "/></g></g></g><g fill="#f55d00" fill-opacity="1"><g transform="translate(197.211225, 235.842407)"><g><path d="M 0.265625 -10 C 0.265625 -9.296875 1.171875 -9.46875 1.171875 -8.046875 L 1.140625 -4.203125 C 1.140625 -1.59375 1.78125 0.15625 4.015625 0.15625 C 5.921875 0.15625 6.59375 -0.796875 6.59375 -1.484375 C 6.59375 -2.078125 6.328125 -1.828125 5.875 -2.265625 C 5.375 -2.734375 5.421875 -3.609375 5.421875 -5.875 L 5.421875 -8.984375 C 5.421875 -9.140625 5.5625 -9.28125 5.71875 -9.28125 L 6.140625 -9.28125 C 6.53125 -9.28125 6.796875 -9.546875 6.796875 -9.96875 C 6.796875 -10.359375 6.53125 -10.625 6.140625 -10.625 L 5.71875 -10.625 C 5.5625 -10.625 5.421875 -10.765625 5.421875 -10.921875 L 5.421875 -11.90625 C 5.421875 -12.671875 5.390625 -13.453125 4.75 -13.453125 C 4.046875 -13.453125 4.0625 -12.390625 2.390625 -11.328125 C 1.109375 -10.53125 0.265625 -10.796875 0.265625 -10 Z M 0.265625 -10 "/></g></g></g><g fill="#f55d00" fill-opacity="1"><g transform="translate(204.410805, 235.842407)"><g><path d="M 6.296875 0.15625 C 9.828125 0.15625 12.0625 -1.859375 12.0625 -5.3125 C 12.0625 -8.765625 9.828125 -10.796875 6.296875 -10.796875 C 2.734375 -10.796875 0.53125 -8.765625 0.53125 -5.3125 C 0.53125 -1.859375 2.734375 0.15625 6.296875 0.15625 Z M 4.921875 -5.3125 C 4.921875 -7.515625 5.203125 -9.296875 6.296875 -9.296875 C 7.421875 -9.296875 7.6875 -7.515625 7.6875 -5.3125 C 7.6875 -3.109375 7.421875 -1.328125 6.296875 -1.328125 C 5.203125 -1.328125 4.921875 -3.109375 4.921875 -5.3125 Z M 4.921875 -5.3125 "/></g></g></g><g fill="#f55d00" fill-opacity="1"><g transform="translate(217.269031, 235.842407)"><g/></g></g><g fill="#f55d00" fill-opacity="1"><g transform="translate(221.519744, 235.842407)"><g><path d="M 0.53125 -4.46875 C 0.53125 -1.671875 1.75 0.15625 4.0625 0.15625 C 5.5 0.15625 6.265625 -0.40625 6.78125 -1.03125 C 7.015625 -1.359375 7.171875 -1.515625 7.3125 -1.515625 C 7.421875 -1.515625 7.46875 -1.296875 7.5 -0.84375 C 7.515625 -0.15625 8 0.234375 8.6875 0.15625 C 9.140625 0.109375 9.4375 0 10 0 C 10.53125 0 11.25 0.15625 11.796875 0.15625 C 12.328125 0.15625 12.734375 0.03125 12.734375 -0.5 C 12.734375 -1.28125 11.828125 -0.9375 11.828125 -3.421875 L 11.828125 -13.84375 C 11.828125 -14.625 11.671875 -15.28125 11.03125 -15.28125 C 10.34375 -15.28125 10.65625 -14.75 8.953125 -14.140625 C 7.578125 -13.640625 6.5625 -13.796875 6.5625 -13 C 6.5625 -12.3125 7.46875 -12.46875 7.46875 -11.0625 L 7.46875 -10.65625 C 6.984375 -10.71875 6.453125 -10.796875 5.65625 -10.796875 C 2.390625 -10.796875 0.53125 -8.296875 0.53125 -4.46875 Z M 4.96875 -6.09375 C 4.96875 -8.046875 5.3125 -9.375 6.21875 -9.375 C 7.125 -9.375 7.46875 -8.046875 7.46875 -6.09375 C 7.46875 -4.125 7.125 -2.796875 6.21875 -2.796875 C 5.3125 -2.796875 4.96875 -4.125 4.96875 -6.09375 Z M 4.96875 -6.09375 "/></g></g></g><g fill="#f55d00" fill-opacity="1"><g transform="translate(234.776465, 235.842407)"><g><path d="M 6.40625 0.15625 C 9.109375 0.15625 11.515625 -1.015625 11.515625 -2.8125 C 11.515625 -3.265625 11.21875 -3.71875 10.609375 -3.71875 C 9.28125 -3.71875 9.328125 -1.4375 6.75 -1.4375 C 4.96875 -1.4375 4.9375 -3.1875 5.953125 -3.1875 C 8.609375 -3.1875 11.484375 -4.28125 11.484375 -6.96875 C 11.484375 -8.265625 10.578125 -10.796875 6.1875 -10.796875 C 2.8125 -10.796875 0.53125 -8.578125 0.53125 -5.28125 C 0.53125 -1.40625 3.59375 0.15625 6.40625 0.15625 Z M 6.1875 -9.4375 C 6.9375 -9.4375 7.421875 -8.484375 7.421875 -6.984375 C 7.421875 -5.5 6.9375 -4.546875 6.1875 -4.546875 C 5.453125 -4.546875 4.96875 -5.5 4.96875 -6.984375 C 4.96875 -8.484375 5.453125 -9.4375 6.1875 -9.4375 Z M 6.1875 -9.4375 "/></g></g></g><g fill="#f55d00" fill-opacity="1"><g transform="translate(247.076803, 235.842407)"><g/></g></g><g fill="#f55d00" fill-opacity="1"><g transform="translate(251.327527, 235.842407)"><g><path d="M 0.71875 -2.625 C 0.6875 -1.109375 0.1875 0.15625 1.25 0.15625 C 2 0.15625 2.203125 0 3.109375 0 C 4.46875 0 5.1875 0.15625 6.53125 0.15625 C 9.28125 0.15625 11.984375 -1.171875 11.984375 -3.71875 C 11.984375 -8.5625 4.890625 -8 4.890625 -10.4375 C 4.890625 -11.328125 5.421875 -11.90625 6.4375 -11.90625 C 8.5 -11.90625 9.171875 -8.796875 10.390625 -8.796875 C 11.953125 -8.796875 11.21875 -10.359375 10.015625 -13.046875 C 9.890625 -13.375 9.671875 -13.453125 9.40625 -13.453125 C 9.0625 -13.453125 8.578125 -13.296875 7.96875 -13.296875 C 7.171875 -13.296875 6.671875 -13.453125 5.640625 -13.453125 C 2.34375 -13.453125 0.671875 -11.75 0.671875 -9.484375 C 0.671875 -4.578125 8.109375 -4.625 8.140625 -2.546875 C 8.140625 -1.75 7.515625 -1.515625 6.671875 -1.515625 C 3 -1.515625 2.09375 -5.34375 1.0625 -5.34375 C 0.109375 -5.34375 0.71875 -4.25 0.71875 -2.625 Z M 0.71875 -2.625 "/></g></g></g><g fill="#f55d00" fill-opacity="1"><g transform="translate(264.106045, 235.842407)"><g><path d="M 6.296875 0.15625 C 9.828125 0.15625 12.0625 -1.859375 12.0625 -5.3125 C 12.0625 -8.765625 9.828125 -10.796875 6.296875 -10.796875 C 2.734375 -10.796875 0.53125 -8.765625 0.53125 -5.3125 C 0.53125 -1.859375 2.734375 0.15625 6.296875 0.15625 Z M 4.921875 -5.3125 C 4.921875 -7.515625 5.203125 -9.296875 6.296875 -9.296875 C 7.421875 -9.296875 7.6875 -7.515625 7.6875 -5.3125 C 7.6875 -3.109375 7.421875 -1.328125 6.296875 -1.328125 C 5.203125 -1.328125 4.921875 -3.109375 4.921875 -5.3125 Z M 4.921875 -5.3125 "/></g></g></g><g fill="#f55d00" fill-opacity="1"><g transform="translate(276.964283, 235.842407)"><g><path d="M 0.140625 -8.5 C 0.140625 -8.109375 0.40625 -7.84375 0.796875 -7.84375 L 1.5625 -7.84375 L 1.5625 -3.421875 C 1.5625 -0.9375 0.671875 -1.28125 0.671875 -0.5 C 0.671875 0.03125 1.109375 0.15625 1.734375 0.15625 C 2.359375 0.15625 3.15625 0 3.6875 0 C 4.21875 0 5.015625 0.15625 5.6875 0.15625 C 6.265625 0.15625 6.75 0.03125 6.75 -0.5 C 6.75 -1.28125 5.84375 -0.9375 5.84375 -3.484375 L 5.84375 -7.84375 L 6.671875 -7.84375 C 7.0625 -7.84375 7.328125 -8.109375 7.328125 -8.5 C 7.328125 -8.9375 7.0625 -9.203125 6.671875 -9.203125 L 5.796875 -9.203125 C 5.53125 -10.46875 4.4375 -10.765625 4.4375 -11.859375 C 4.4375 -12.59375 4.9375 -13 5.5 -13 C 6.703125 -13 6.53125 -10.609375 7.5 -10.609375 C 7.96875 -10.609375 8.34375 -10.84375 8.6875 -11.90625 C 9.21875 -13.53125 8.875 -14.359375 5.875 -14.359375 C 3.875 -14.359375 1.59375 -13.15625 1.59375 -10.3125 L 1.5625 -9.203125 L 0.796875 -9.203125 C 0.40625 -9.203125 0.140625 -8.9375 0.140625 -8.5 Z M 0.140625 -8.5 "/></g></g></g><g fill="#f55d00" fill-opacity="1"><g transform="translate(286.236057, 235.842407)"><g><path d="M 0.265625 -10 C 0.265625 -9.296875 1.171875 -9.46875 1.171875 -8.046875 L 1.140625 -4.203125 C 1.140625 -1.59375 1.78125 0.15625 4.015625 0.15625 C 5.921875 0.15625 6.59375 -0.796875 6.59375 -1.484375 C 6.59375 -2.078125 6.328125 -1.828125 5.875 -2.265625 C 5.375 -2.734375 5.421875 -3.609375 5.421875 -5.875 L 5.421875 -8.984375 C 5.421875 -9.140625 5.5625 -9.28125 5.71875 -9.28125 L 6.140625 -9.28125 C 6.53125 -9.28125 6.796875 -9.546875 6.796875 -9.96875 C 6.796875 -10.359375 6.53125 -10.625 6.140625 -10.625 L 5.71875 -10.625 C 5.5625 -10.625 5.421875 -10.765625 5.421875 -10.921875 L 5.421875 -11.90625 C 5.421875 -12.671875 5.390625 -13.453125 4.75 -13.453125 C 4.046875 -13.453125 4.0625 -12.390625 2.390625 -11.328125 C 1.109375 -10.53125 0.265625 -10.796875 0.265625 -10 Z M 0.265625 -10 "/></g></g></g><g fill="#f55d00" fill-opacity="1"><g transform="translate(293.435649, 235.842407)"><g><path d="M 2.359375 -6.453125 C 2.625 -5.875 3.984375 -2.875 4.9375 -0.765625 C 5.234375 -0.15625 5.5625 0.15625 5.90625 0.15625 C 6.21875 0.15625 6.5625 -0.140625 6.828125 -0.765625 C 7.3125 -1.859375 7.921875 -3.15625 8.265625 -3.9375 C 8.421875 -4.3125 8.640625 -4.3125 8.796875 -3.9375 C 9.140625 -3.15625 9.734375 -1.890625 10.234375 -0.796875 C 10.53125 -0.1875 10.84375 0.140625 11.15625 0.140625 C 11.484375 0.140625 11.796875 -0.1875 12.0625 -0.828125 C 12.65625 -2.234375 13.390625 -3.953125 13.609375 -4.46875 L 14.515625 -6.515625 C 15.8125 -9.75 16.90625 -9.546875 16.90625 -10.203125 C 16.90625 -10.65625 16.609375 -10.796875 16.265625 -10.796875 C 15.84375 -10.796875 15.328125 -10.625 15.015625 -10.625 C 14.640625 -10.625 14.09375 -10.796875 13.65625 -10.796875 C 13.296875 -10.796875 13.015625 -10.6875 13.015625 -10.203125 C 13.015625 -9.703125 13.71875 -9.484375 13.71875 -8.84375 C 13.71875 -8.234375 13.046875 -6.796875 12.546875 -5.71875 C 12.390625 -5.34375 12.140625 -5.375 12.015625 -5.734375 C 11.609375 -6.828125 10.953125 -8.765625 10.5 -9.9375 C 10.3125 -10.390625 10.09375 -10.53125 9.890625 -10.53125 C 9.640625 -10.53125 9.4375 -10.390625 9.25 -9.96875 C 8.75 -8.796875 8.078125 -6.78125 7.6875 -5.65625 C 7.546875 -5.28125 7.328125 -5.265625 7.171875 -5.640625 C 6.71875 -6.671875 6.140625 -8.046875 6.140625 -8.953125 C 6.140625 -9.59375 6.59375 -9.625 6.59375 -10.125 C 6.59375 -10.65625 6.109375 -10.796875 5.46875 -10.796875 C 4.78125 -10.796875 3.90625 -10.625 3.25 -10.625 C 2.71875 -10.625 1.890625 -10.796875 1.21875 -10.796875 C 0.609375 -10.796875 0.140625 -10.65625 0.140625 -10.125 C 0.140625 -9.25 1.015625 -9.546875 2.359375 -6.453125 Z M 2.359375 -6.453125 "/></g></g></g><g fill="#f55d00" fill-opacity="1"><g transform="translate(310.730462, 235.842407)"><g><path d="M 3.453125 0.15625 C 5.15625 0.15625 6.25 -1.28125 6.828125 -1.28125 C 7.046875 -1.28125 7.171875 -1.109375 7.234375 -0.5625 C 7.28125 0 7.78125 0.21875 8.375 0.140625 C 8.828125 0.078125 9.21875 0 9.78125 0 C 10.3125 0 11 0.15625 11.53125 0.15625 C 12.015625 0.15625 12.390625 0.03125 12.390625 -0.5 C 12.390625 -1.28125 11.484375 -0.9375 11.484375 -3.421875 L 11.484375 -5.796875 C 11.484375 -9.5625 9.109375 -10.796875 6.1875 -10.796875 C 3.484375 -10.796875 1.09375 -9.8125 1.09375 -8 C 1.09375 -7.390625 1.59375 -6.90625 2.203125 -6.90625 C 4.015625 -6.90625 4.09375 -9.4375 6.03125 -9.4375 C 6.984375 -9.4375 7.328125 -8.875 7.328125 -8.421875 C 7.328125 -7.84375 6.671875 -7.390625 5.3125 -7.09375 C 2.46875 -6.484375 0.53125 -5.1875 0.53125 -2.8125 C 0.53125 -1.171875 1.46875 0.15625 3.453125 0.15625 Z M 4.65625 -3.90625 C 4.65625 -5.203125 5.765625 -5.578125 6.640625 -6.03125 C 7.0625 -6.25 7.3125 -6.109375 7.3125 -5.65625 L 7.3125 -4.390625 C 7.3125 -3.34375 6.828125 -2.46875 5.953125 -2.46875 C 5.234375 -2.46875 4.65625 -2.875 4.65625 -3.90625 Z M 4.65625 -3.90625 "/></g></g></g><g fill="#f55d00" fill-opacity="1"><g transform="translate(323.641823, 235.842407)"><g><path d="M 0.265625 -0.5 C 0.265625 0.03125 0.71875 0.15625 1.328125 0.15625 C 1.96875 0.15625 2.765625 0 3.296875 0 C 3.828125 0 4.625 0.15625 5.28125 0.15625 C 5.875 0.15625 6.359375 0.03125 6.359375 -0.5 C 6.359375 -1.28125 5.453125 -0.9375 5.453125 -3.421875 L 5.453125 -5.375 C 5.453125 -7.390625 6.625 -7.921875 7.28125 -7.921875 C 8.375 -7.921875 8.953125 -6.671875 9.515625 -6.671875 C 9.828125 -6.671875 10.15625 -7.0625 10.578125 -8.34375 C 11.109375 -9.9375 10.609375 -10.796875 8.671875 -10.796875 C 7.65625 -10.796875 6.4375 -10.203125 5.84375 -9.203125 C 5.390625 -8.421875 5.453125 -8.34375 5.453125 -9.25 L 5.453125 -9.359375 C 5.453125 -10.125 5.28125 -10.796875 4.65625 -10.796875 C 3.953125 -10.796875 4.203125 -10.265625 2.5 -9.640625 C 1.109375 -9.140625 0.296875 -9.296875 0.296875 -8.5 C 0.296875 -7.8125 1.203125 -7.96875 1.203125 -6.5625 C 1.203125 -5.921875 1.171875 -5.84375 1.171875 -3.421875 C 1.171875 -0.9375 0.265625 -1.28125 0.265625 -0.5 Z M 0.265625 -0.5 "/></g></g></g><g fill="#f55d00" fill-opacity="1"><g transform="translate(335.065475, 235.842407)"><g><path d="M 6.40625 0.15625 C 9.109375 0.15625 11.515625 -1.015625 11.515625 -2.8125 C 11.515625 -3.265625 11.21875 -3.71875 10.609375 -3.71875 C 9.28125 -3.71875 9.328125 -1.4375 6.75 -1.4375 C 4.96875 -1.4375 4.9375 -3.1875 5.953125 -3.1875 C 8.609375 -3.1875 11.484375 -4.28125 11.484375 -6.96875 C 11.484375 -8.265625 10.578125 -10.796875 6.1875 -10.796875 C 2.8125 -10.796875 0.53125 -8.578125 0.53125 -5.28125 C 0.53125 -1.40625 3.59375 0.15625 6.40625 0.15625 Z M 6.1875 -9.4375 C 6.9375 -9.4375 7.421875 -8.484375 7.421875 -6.984375 C 7.421875 -5.5 6.9375 -4.546875 6.1875 -4.546875 C 5.453125 -4.546875 4.96875 -5.5 4.96875 -6.984375 C 4.96875 -8.484375 5.453125 -9.4375 6.1875 -9.4375 Z M 6.1875 -9.4375 "/></g></g></g></svg>